<?xml version="1.0" encoding="UTF-8"?>
<svg id="Layer_2" data-name="Layer 2" xmlns="http://www.w3.org/2000/svg" viewBox="0 0 495.04 63.14">
  <defs>
    <style>
      .cls-1 {
        fill: #fff;
      }

      .cls-2 {
        fill: #e63462;
      }
    </style>
  </defs>
  <g id="Layer_1-2" data-name="Layer 1">
    <g>
      <path class="cls-1" d="M14.11,9.11c0,.97-.19,1.88-.56,2.73-.37,.85-.88,1.58-1.52,2.21-.64,.63-1.39,1.13-2.25,1.5-.86,.37-1.78,.56-2.75,.56s-1.89-.19-2.75-.56c-.86-.37-1.6-.87-2.23-1.5-.63-.63-1.13-1.37-1.5-2.21-.37-.85-.56-1.76-.56-2.73s.19-1.85,.56-2.71c.37-.86,.87-1.6,1.5-2.23s1.37-1.13,2.23-1.5c.86-.37,1.77-.56,2.75-.56s1.89,.19,2.75,.56c.86,.37,1.61,.87,2.25,1.5,.64,.63,1.15,1.37,1.52,2.23,.37,.86,.56,1.76,.56,2.71ZM7.02,61.49h0c-2.92,0-5.29-2.37-5.29-5.29V25.59c0-2.92,2.37-5.29,5.29-5.29h0c2.92,0,5.29,2.37,5.29,5.29v30.61c0,2.92-2.37,5.29-5.29,5.29Z"/>
      <path class="cls-1" d="M29.06,61.49h-7.01c-.96,0-1.74-.78-1.74-1.74V22.05c0-.96,.78-1.74,1.74-1.74h0c.51,0,.99,.22,1.32,.6l1.82,2.11c.6,.69,1.63,.81,2.35,.26,1.37-1.05,2.88-1.89,4.51-2.53,2.14-.83,4.38-1.25,6.71-1.25,2.51,0,4.88,.48,7.11,1.44,2.23,.96,4.18,2.28,5.85,3.96,1.67,1.68,2.98,3.64,3.94,5.88,.96,2.24,1.44,4.63,1.44,7.17v21.79c0,.96-.78,1.74-1.74,1.74h-7.01c-.96,0-1.74-.78-1.74-1.74v-21.79c0-1.08-.21-2.1-.62-3.06-.41-.96-.97-1.8-1.69-2.52-.72-.72-1.55-1.28-2.5-1.69-.95-.41-1.96-.62-3.04-.62s-2.14,.21-3.12,.62c-.97,.41-1.82,.97-2.54,1.69-.72,.72-1.28,1.56-1.69,2.52-.41,.96-.62,1.98-.62,3.06v21.79c0,.96-.78,1.74-1.74,1.74Z"/>
      <path class="cls-1" d="M75.33,61.49h-6.58c-1.08,0-1.96-.88-1.96-1.96v-26.8c0-1.08-.88-1.96-1.96-1.96h-1.19c-1.08,0-1.96-.88-1.96-1.96v-6.54c0-1.08,.88-1.96,1.96-1.96h1.19c1.08,0,1.96-.88,1.96-1.96h0c0-2.54,.48-4.92,1.44-7.15,.96-2.23,2.28-4.17,3.96-5.83,1.68-1.65,3.63-2.96,5.86-3.92s4.61-1.44,7.15-1.44h5.92c1.08,0,1.96,.88,1.96,1.96v6.54c0,1.08-.88,1.96-1.96,1.96h-5.92c-1.13,0-2.17,.2-3.13,.6-.96,.4-1.79,.95-2.5,1.65-.71,.71-1.26,1.54-1.67,2.5-.41,.96-.62,2.01-.62,3.13h0c0,1.08,.88,1.96,1.96,1.96h8.96c1.08,0,1.96,.88,1.96,1.96v6.54c0,1.08-.88,1.96-1.96,1.96h-8.96c-1.08,0-1.96,.88-1.96,1.96v26.8c0,1.08-.88,1.96-1.96,1.96Z"/>
      <path class="cls-1" d="M109.02,9.11c0,.97-.19,1.88-.56,2.73-.37,.85-.88,1.58-1.52,2.21-.64,.63-1.39,1.13-2.25,1.5-.86,.37-1.78,.56-2.75,.56s-1.89-.19-2.75-.56c-.86-.37-1.6-.87-2.23-1.5-.63-.63-1.13-1.37-1.5-2.21-.37-.85-.56-1.76-.56-2.73s.19-1.85,.56-2.71c.37-.86,.87-1.6,1.5-2.23s1.37-1.13,2.23-1.5c.86-.37,1.77-.56,2.75-.56s1.89,.19,2.75,.56c.86,.37,1.61,.87,2.25,1.5,.64,.63,1.15,1.37,1.52,2.23,.37,.86,.56,1.76,.56,2.71Zm-7.1,52.38h0c-2.92,0-5.29-2.37-5.29-5.29V25.59c0-2.92,2.37-5.29,5.29-5.29h0c2.92,0,5.29,2.37,5.29,5.29v30.61c0,2.92-2.37,5.29-5.29,5.29Z"/>
      <path class="cls-1" d="M123.97,61.49h-7.01c-.96,0-1.74-.78-1.74-1.74V22.05c0-.96,.78-1.74,1.74-1.74h0c.51,0,.99,.22,1.32,.6l1.82,2.11c.6,.69,1.63,.81,2.35,.26,1.37-1.05,2.88-1.89,4.51-2.53,2.14-.83,4.38-1.25,6.71-1.25,2.51,0,4.88,.48,7.11,1.44,2.23,.96,4.18,2.28,5.85,3.96,1.67,1.68,2.98,3.64,3.94,5.88,.96,2.24,1.44,4.63,1.44,7.17v21.79c0,.96-.78,1.74-1.74,1.74h-7.01c-.96,0-1.74-.78-1.74-1.74v-21.79c0-1.08-.21-2.1-.62-3.06-.41-.96-.97-1.8-1.69-2.52-.72-.72-1.55-1.28-2.5-1.69-.95-.41-1.96-.62-3.04-.62s-2.14,.21-3.12,.62c-.97,.41-1.82,.97-2.54,1.69-.72,.72-1.28,1.56-1.69,2.52-.41,.96-.62,1.98-.62,3.06v21.79c0,.96-.78,1.74-1.74,1.74Z"/>
      <path class="cls-1" d="M171.86,9.11c0,.97-.19,1.88-.56,2.73-.37,.85-.88,1.58-1.52,2.21-.64,.63-1.39,1.13-2.25,1.5-.86,.37-1.78,.56-2.75,.56s-1.89-.19-2.75-.56c-.86-.37-1.6-.87-2.23-1.5-.63-.63-1.13-1.37-1.5-2.21-.37-.85-.56-1.76-.56-2.73s.19-1.85,.56-2.71c.37-.86,.87-1.6,1.5-2.23s1.37-1.13,2.23-1.5c.86-.37,1.77-.56,2.75-.56s1.89,.19,2.75,.56c.86,.37,1.61,.87,2.25,1.5,.64,.63,1.15,1.37,1.52,2.23,.37,.86,.56,1.76,.56,2.71Zm-7.1,52.38h0c-2.92,0-5.29-2.37-5.29-5.29V25.59c0-2.92,2.37-5.29,5.29-5.29h0c2.92,0,5.29,2.37,5.29,5.29v30.61c0,2.92-2.37,5.29-5.29,5.29Z"/>
      <path class="cls-1" d="M198.7,61.49c-2.54,0-4.92-.48-7.15-1.44s-4.19-2.28-5.86-3.96c-1.68-1.68-3-3.63-3.96-5.86-.96-2.23-1.44-4.61-1.44-7.15v-9.67c0-1.41-1.14-2.56-2.56-2.56h0c-1.41,0-2.56-1.14-2.56-2.56v-5.35c0-1.41,1.14-2.56,2.56-2.56h0c1.41,0,2.56-1.14,2.56-2.56V6.48c0-1.41,1.14-2.56,2.56-2.56h5.35c1.41,0,2.56,1.14,2.56,2.56v11.34c0,1.41,1.14,2.56,2.56,2.56h10.81c1.41,0,2.56,1.14,2.56,2.56v5.35c0,1.41-1.14,2.56-2.56,2.56h-10.81c-1.41,0-2.56,1.14-2.56,2.56v9.67c0,1.1,.2,2.13,.62,3.1,.41,.96,.97,1.8,1.69,2.52,.72,.72,1.56,1.29,2.54,1.71,.97,.42,2.01,.63,3.11,.63h5.4c1.41,0,2.56,1.14,2.56,2.56v5.35c0,1.41-1.14,2.56-2.56,2.56h-5.4Z"/>
      <path class="cls-1" d="M229.68,50.51c-.36,.44-.09,1.1,.48,1.16h0c.41,.04,.82,.06,1.23,.06,1.02,0,2.01-.14,2.96-.42,.95-.28,1.84-.69,2.67-1.21,.83-.53,1.58-1.17,2.23-1.92l.02-.02c1.02-1.18,2.82-1.24,3.92-.14l3.7,3.72c.98,.99,1.02,2.57,.09,3.6-.57,.63-1.17,1.22-1.81,1.78-1.27,1.1-2.64,2.04-4.11,2.81-1.47,.77-3.03,1.35-4.65,1.75-1.63,.4-3.3,.6-5.02,.6-2.9,0-5.62-.54-8.17-1.62-2.55-1.08-4.78-2.58-6.69-4.5-1.91-1.92-3.42-4.21-4.52-6.86-1.1-2.65-1.65-5.57-1.65-8.75s.55-6.23,1.65-8.92c1.1-2.69,2.61-4.99,4.52-6.88,1.91-1.9,4.14-3.37,6.69-4.42,2.55-1.05,5.27-1.58,8.17-1.58,1.72,0,3.4,.21,5.04,.62,1.64,.41,3.2,1,4.67,1.77,1.47,.77,2.85,1.71,4.13,2.83,.01,.01,.03,.02,.04,.03,2.08,1.82,2.28,5,.52,7.12l-16.11,19.41Zm4-19.91c.31-.42,.09-1.03-.42-1.13-.13-.02-.26-.04-.39-.06-.47-.05-.97-.08-1.48-.08-1.44,0-2.79,.26-4.06,.79-1.27,.53-2.37,1.28-3.31,2.25-.94,.97-1.67,2.15-2.21,3.52-.54,1.37-.81,2.92-.81,4.63,0,.38,.02,.82,.06,1.31,.04,.49,.1,.98,.19,1.48,.09,.5,.2,.98,.33,1.44h0c.16,.57,.89,.71,1.24,.25l10.86-14.41Z"/>
      <path class="cls-1" d="M291.17,30.91h10.81c1.41,0,2.56-1.14,2.56-2.56v-5.34c0-1.41-1.15-2.56-2.56-2.56h-10.81c-1.41,0-2.56-1.15-2.56-2.56V6.55c0-1.41-1.14-2.56-2.56-2.56h-5.34c-1.41,0-2.56,1.15-2.56,2.56v11.35c0,.71-.29,1.34-.75,1.81-.46,.46-1.1,.75-1.81,.75-1.41,0-2.56,1.15-2.56,2.56v5.34c0,.71,.29,1.35,.75,1.81,.46,.46,1.1,.75,1.81,.75,1.41,0,2.56,1.15,2.56,2.56v9.67c0,2.54,.48,4.92,1.44,7.15s2.28,4.19,3.96,5.86c1.68,1.68,3.64,3,5.86,3.96,2.23,.96,4.61,1.44,7.15,1.44h5.41c1.41,0,2.56-1.15,2.56-2.56v-5.35c0-1.41-1.15-2.56-2.56-2.56h-5.41c-1.1,0-2.14-.21-3.11-.63-.98-.42-1.82-.99-2.54-1.71s-1.28-1.56-1.69-2.52c-.41-.96-.62-1.99-.62-3.1v-9.67c0-1.41,1.15-2.56,2.56-2.56Z"/>
      <path class="cls-1" d="M450.47,29.26c-.82-1.92-1.94-3.59-3.37-5.02-1.42-1.42-3.09-2.54-5-3.36-1.91-.82-3.95-1.23-6.13-1.23-.95,0-1.91,.08-2.88,.25-.97,.17-1.91,.44-2.83,.83-.91,.39-1.78,.89-2.59,1.5-.34,.26-.68,.54-.99,.84-.68,.66-1.76,.66-2.44,0-1.08-1.05-2.28-1.83-3.59-2.35-1.83-.72-3.71-1.08-5.63-1.08s-3.72,.34-5.48,1.02c-1.28,.5-2.49,1.14-3.62,1.94-.72,.5-1.7,.38-2.29-.27l-1.24-1.37c-.33-.37-.81-.58-1.31-.58-.97,0-1.76,.79-1.76,1.75V59.8c0,.97,.79,1.76,1.76,1.76h6.99c.97,0,1.76-.79,1.76-1.76v-24.39c0-.72,.13-1.4,.4-2.04,.27-.64,.64-1.2,1.11-1.69,.47-.49,1.03-.87,1.65-1.14,.63-.27,1.3-.4,2.02-.4s1.4,.13,2.04,.4c.64,.27,1.2,.65,1.69,1.14,.49,.49,.87,1.05,1.13,1.69,.27,.64,.4,1.32,.4,2.04v24.39c0,.97,.79,1.76,1.76,1.76h6.98c.97,0,1.76-.79,1.76-1.76v-24.39c0-.72,.13-1.4,.4-2.04,.27-.64,.64-1.2,1.12-1.69,.47-.49,1.02-.87,1.65-1.14,.63-.27,1.3-.4,2.02-.4s1.4,.13,2.04,.4c.64,.27,1.2,.65,1.69,1.14,.49,.49,.86,1.05,1.13,1.69,.27,.64,.4,1.32,.4,2.04v24.39c0,.97,.79,1.76,1.76,1.76h6.94c.97,0,1.76-.79,1.76-1.76v-24.39c0-2.18-.41-4.23-1.23-6.15Z"/>
      <path class="cls-1" d="M494,43.53c-.69-1.51-1.63-2.81-2.81-3.88-1.18-1.08-2.57-1.92-4.15-2.52-1.59-.6-3.28-.91-5.08-.91h-10.92c-.72,0-1.33-.26-1.84-.79-.52-.52-.77-1.16-.77-1.91s.26-1.33,.77-1.84c.51-.52,1.13-.77,1.84-.77h16.04c1.44,0,2.75-.58,3.7-1.53,.95-.94,1.53-2.25,1.53-3.69,0-2.89-2.34-5.23-5.23-5.23h-16.04c-1.82,0-3.52,.34-5.11,1.02-1.59,.68-2.97,1.61-4.15,2.79-1.18,1.18-2.11,2.56-2.79,4.15-.68,1.59-1.02,3.3-1.02,5.11s.34,3.53,1.02,5.11c.68,1.59,1.61,2.98,2.79,4.17,1.18,1.19,2.56,2.14,4.15,2.83,1.59,.69,3.3,1.04,5.11,1.04h10.92c.72,0,1.33,.11,1.84,.34s.77,.72,.77,1.46-.26,1.34-.77,1.85c-.51,.51-1.13,.77-1.84,.77h-18.77c-1.44,0-2.75,.59-3.7,1.53-.95,.94-1.53,2.25-1.53,3.7,0,2.89,2.34,5.23,5.23,5.23h18.77c1.79,0,3.48-.34,5.08-1.02,1.59-.68,2.97-1.62,4.15-2.81,1.18-1.19,2.12-2.57,2.81-4.15,.69-1.57,1.04-3.27,1.04-5.1s-.34-3.45-1.04-4.96Z"/>
      <path class="cls-1" d="M391.28,39.25c-.05-.79-.15-1.58-.29-2.35-.38-1.96-1.07-3.86-2.13-5.68-.46-.95-1.02-1.83-1.73-2.62-.72-1-1.54-1.89-2.49-2.66-.15-.11-.32-.2-.46-.34-.96-1.01-2.15-1.71-3.36-2.36-1.4-.74-2.83-1.4-4.39-1.76-.26-.07-.51-.13-.77-.21-.84-.28-1.75-.21-2.58-.55h-3.8c-.06,.04-.1,.12-.16,.13-2.62,.3-5.01,1.27-7.28,2.57-4.94,2.83-8.91,6.77-12.6,11.03-1.66-1.72-3.25-3.48-5-5.1-3.44-3.18-7.09-6.07-11.55-7.71-1.12-.41-2.29-.55-3.41-.91h-3.51c-.73,.27-1.51,.25-2.26,.42-7.19,1.66-12.26,5.83-15.06,12.7-.1,.24-.23,.49-.23,.76,0,.03,0,.07,0,.11,0,.01,0,.03,0,.04,0,0,0,0,.01,0,.42-.35,.6-.87,.9-1.29,2.61-3.54,6.18-5.34,10.5-5.83,1.61-.25,3.22-.26,4.83,.02,1.2,.24,2.42,.42,3.55,.99,2.7,.85,5.06,2.32,7.33,3.95,2.61,1.87,4.67,4.32,6.9,6.59,.53,.53,1.02,1.1,1.53,1.65,1.9,1.92,3.76,3.89,5.54,5.93,1.59,1.63,3.12,3.33,4.79,4.9,2.74,2.57,5.65,4.9,8.98,6.69,4.82,2.59,9.8,2.75,14.87,.88,5.75-2.13,9.83-6.04,12.12-11.77,.1-.26,.26-.52,.25-.82,0-.03,0-.05,0-.08,.58-1.38,.83-2.84,.94-4.32,.08-1.01,.09-2.01,.03-2.99Zm-28.56-6.79c2.04-1.6,4.19-2.96,6.71-3.69,1.95-.32,3.83,0,5.7,.56,1.36,.58,2.65,1.29,3.82,2.2,.04,.03,.07,.07,.11,.1,.04,.04,.08,.08,.13,.13,.71,.73,1.4,1.47,2,2.3,.56,.92,1.04,1.88,1.41,2.88,.04,.12,.06,.24,.09,.35,1.24,4.84-.03,8.95-3.74,12.26-2.33,2.08-5.16,2.93-8.25,3.04-2.61-.79-4.91-2.19-7.13-3.73-2.71-1.86-4.82-4.37-7.11-6.68-.57-.59-1.12-1.21-1.68-1.82,2.44-2.84,4.99-5.58,7.94-7.91Z"/>
      <path class="cls-2" d="M381.06,60.61c.29,.57,.88,.95,1.56,.95h6.94c.97,0,1.76-.79,1.76-1.76v-9.07c-2.3,4.4-5.74,7.71-10.26,9.87Z"/>
      <path class="cls-2" d="M343.18,52.63l-3.74-3.79c-1.08-1.1-2.85-.99-3.85,.18,0,0-.01,.02-.02,.03-.65,.76-1.39,1.4-2.22,1.92-.82,.52-1.71,.93-2.65,1.21-.94,.29-1.92,.42-2.94,.42-.07,0-.13,0-.2,0-.34,0-.68-.02-1.02-.05-.41-.04-.81-.12-1.22-.25l12.04-14.62c-1.11-1.14-2.23-2.19-3.48-3.08-1.24-.89-2.65-1.84-4.21-2.62l-11.14,14.9c-.21-.36-.37-.77-.5-1.23-.13-.46-.24-.94-.32-1.44-.09-.5-.16-1-.19-1.48-.04-.49-.06-.92-.06-1.31,0-1.72,.26-3.26,.8-4.63,.54-1.37,1.27-2.54,2.2-3.52,.22-.23,.45-.45,.68-.65,.08-.07,.16-.13,.24-.2,.47-.38,.96-.71,1.49-.99,0,0,.01,0,.02-.01,.27-.15,.55-.28,.84-.4,.63-.26,1.27-.46,1.94-.59-.39-.1-.83-.18-1.28-.27l-.37-.07c-.65-.11-1.32-.16-1.99-.16s-1.34,.05-2.01,.16c-.03,0-.07,.01-.1,.02-3.82,.43-6.68,2.01-8.75,4.82-.01,.03-.08,.14-.13,.23-.22,.39-.56,.97-1.16,1.49-.08,.06-.16,.12-.24,.18-.42,.28-.91,.43-1.41,.43-.24,0-.49-.03-.73-.1-.08-.03-.17-.05-.25-.09-.24,1.4-.36,2.85-.36,4.37,0,3.18,.55,6.09,1.64,8.74,1.06,2.58,2.49,4.81,4.31,6.69,.06,.06,.11,.12,.17,.18,1.9,1.92,4.11,3.42,6.64,4.5,1.97,.84,4.03,1.35,6.21,1.54,.1,0,.2,.02,.3,.03,.35,.03,.71,.04,1.06,.05,.13,0,.26,0,.38,0h.16c.08,0,.16,0,.23,0,1.19,0,2.37-.12,3.53-.33,.02,0,.04,0,.06-.01,.39-.07,.77-.15,1.16-.25,1.61-.4,3.15-.98,4.61-1.75,1.46-.77,2.82-1.7,4.08-2.8,.65-.57,1.26-1.17,1.83-1.81,.91-1.02,.87-2.57-.09-3.55Z"/>
    </g>
  </g>
</svg>